<svg xmlns="http://www.w3.org/2000/svg" fill="none" viewBox="0 0 24 24"><path fill="#200E32" fill-rule="evenodd" d="M21.491 5.443v2.862a2.967 2.967 0 0 1-.817 2.086 2.846 2.846 0 0 1-2.022.884h-1.164a.786.786 0 0 1-.693-.787c0-.405.3-.745.693-.788h1.129c.357-.002.698-.15.948-.41s.388-.611.383-.976v-2.87c-.01-.747-.6-1.35-1.331-1.36h-2.813c-.735 0-1.33.609-1.33 1.36v4.292a.792.792 0 0 1-.794.774.76.76 0 0 1-.54-.245.792.792 0 0 1-.21-.565V5.443c-.002-.78.3-1.528.839-2.08a2.845 2.845 0 0 1 2.035-.863h2.813c1.575.038 2.842 1.335 2.874 2.943ZM8.196 2.5H5.383C3.795 2.51 2.51 3.822 2.5 5.443v2.871c.01 1.62 1.296 2.93 2.883 2.934h2.813a2.845 2.845 0 0 0 2.038-.856c.54-.55.845-1.298.845-2.078v-2.87C11.074 3.82 9.786 2.503 8.196 2.5Zm1.33 5.814c.006.365-.132.716-.382.976s-.591.408-.948.41H5.383a1.317 1.317 0 0 1-.968-.397 1.374 1.374 0 0 1-.39-.989v-2.87c0-.366.144-.716.4-.972.255-.255.6-.395.958-.388h2.813c.733.005 1.326.61 1.33 1.36v2.87Zm6.278 4.438h2.813c1.587.004 2.873 1.314 2.883 2.934v2.87c-.01 1.622-1.295 2.934-2.883 2.944h-2.813c-1.586-.01-2.869-1.323-2.874-2.943v-2.871c0-1.62 1.287-2.934 2.874-2.934Zm3.757 6.768c.25-.255.39-.602.387-.963v-2.871c0-.36-.14-.706-.39-.961a1.318 1.318 0 0 0-.941-.398h-2.813c-.735 0-1.33.608-1.33 1.359v2.87c-.003.362.136.71.386.964.25.256.59.398.944.396h2.813c.354.002.694-.14.944-.396ZM2.5 18.548v-2.862c0-.78.304-1.528.845-2.078a2.844 2.844 0 0 1 2.038-.856h1.155a.77.77 0 0 1 .74.367.806.806 0 0 1 0 .84.77.77 0 0 1-.74.368H5.383c-.737 0-1.335.607-1.34 1.359v2.835a1.38 1.38 0 0 0 1.34 1.359h2.83c.355.002.696-.14.947-.395.252-.255.393-.602.393-.964v-4.257a.799.799 0 0 1 .348-.813.763.763 0 0 1 .868.026.8.8 0 0 1 .3.832v4.239c0 1.625-1.29 2.943-2.882 2.943H5.383c-1.578-.033-2.85-1.332-2.883-2.943Z" clip-rule="evenodd"/></svg>