<?xml version="1.0" encoding="UTF-8"?>
<svg version="1.1" xmlns="http://www.w3.org/2000/svg" width="512" height="512">
<path d="M0 0 C9.17088778 -0.067814 18.34160864 -0.12283807 27.51269054 -0.15543652 C31.77133192 -0.17108322 36.02979266 -0.19230318 40.28833008 -0.22631836 C44.39913518 -0.25894752 48.50976668 -0.27686051 52.6206913 -0.28463173 C54.18796839 -0.29016887 55.75523613 -0.30098165 57.32243919 -0.31719017 C59.52009893 -0.33901228 61.71704403 -0.34196501 63.91479492 -0.34057617 C65.16499924 -0.34723801 66.41520355 -0.35389984 67.70329285 -0.36076355 C72.15284301 0.12615732 74.6156984 1.55243339 77.68341064 4.76034546 C79.40860828 7.69508491 80.18733045 10.54404403 81.06542969 13.83447266 C81.24969513 14.51505737 81.43396057 15.19564209 81.62380981 15.89685059 C82.23167771 18.15039803 82.82676763 20.40711487 83.421875 22.6640625 C83.84843754 24.25536818 84.27580009 25.8464596 84.70391846 27.43734741 C85.8336009 31.64372808 86.95253915 35.85289444 88.06921387 40.06274414 C89.18051739 44.24532633 90.30149614 48.42531023 91.421875 52.60546875 C92.88252704 58.05846209 94.34015147 63.51223586 95.79142046 68.9677341 C98.06632304 77.51759985 100.36001383 86.06230601 102.66143799 94.60507202 C102.98365137 95.80147151 103.30586475 96.997871 103.63784218 98.23052502 C104.42512756 101.15371045 105.21251571 104.07686815 106 107 C106.84025732 107.00097681 107.68051464 107.00195362 108.54623431 107.00296003 C158.31526113 107.06119603 208.08424417 107.13496543 257.85321693 107.22898628 C263.82524011 107.24025483 269.79726353 107.25139322 275.76928711 107.26245117 C276.95824024 107.26465486 278.14719336 107.26685854 279.37217537 107.269129 C298.63903957 107.30452886 317.90590372 107.32937781 337.1727884 107.35034702 C356.93336549 107.37208767 376.69390026 107.40512152 396.45444137 107.44870156 C408.65377038 107.47524822 420.85304665 107.49292138 433.05240313 107.49934604 C441.41099277 107.50459071 449.76951596 107.5207766 458.12807002 107.54566566 C462.954932 107.55971228 467.78167495 107.5688397 472.60855865 107.56500816 C477.02464842 107.56160889 481.44048354 107.57189919 485.85652111 107.59323552 C487.45685993 107.5985229 489.05722506 107.598718 490.65756377 107.59339563 C492.82836435 107.58690962 494.99831752 107.59874458 497.16904736 107.61523914 C498.37617829 107.61713775 499.58330922 107.61903635 500.82701987 107.62099248 C505.19052003 108.14220576 507.80549375 109.72476217 510.78199768 112.9024353 C514.89044851 119.9777432 511.31553884 129.74391044 509.3636055 137.11987972 C508.64815748 139.75683228 507.91989268 142.39005978 507.19140625 145.0234375 C506.67533443 146.9290954 506.16052605 148.83509584 505.6468811 150.7414093 C504.25702273 155.88642252 502.85048746 161.02673959 501.44079208 166.1663475 C499.96623107 171.55334116 498.50667564 176.94439451 497.04614258 182.33520508 C495.22667633 189.04733196 493.40567084 195.75902583 491.5778656 202.46888733 C487.59636215 217.08726678 483.65559348 231.71597112 479.75171852 246.35527039 C478.89001368 249.58628005 478.02740591 252.81704723 477.16447449 256.04772949 C476.88436177 257.09647877 476.60424906 258.14522804 476.31564808 259.2257576 C475.75761568 261.31500947 475.19958081 263.40426067 474.64154339 265.4935112 C473.28553371 270.57142739 471.93108054 275.64974886 470.5798645 280.72894287 C469.31015758 285.50054485 468.03465395 290.27056275 466.75501633 295.03951073 C466.29023582 296.77560319 465.8274688 298.51223631 465.36699295 300.24947548 C457.55093306 329.72566913 457.55093306 329.72566913 449 339 C448.47792969 339.62390625 447.95585937 340.2478125 447.41796875 340.890625 C439.21582588 350.07063892 426.93664405 353.91015804 415 355 C411.74789839 355.13262078 408.50069209 355.13525383 405.24621582 355.12698364 C404.29355725 355.12854363 403.34089868 355.13010362 402.35937166 355.13171089 C399.18292452 355.13568378 396.00652558 355.13254565 392.83007812 355.12939453 C390.54634066 355.13075022 388.26260341 355.13253109 385.97886658 355.13470459 C379.78684642 355.13925899 373.59484294 355.13749754 367.40282249 355.1343255 C360.91897919 355.13179163 354.43513731 355.13414231 347.95129395 355.13571167 C336.36622988 355.13764681 324.78117342 355.13454149 313.19611055 355.12945233 C302.70153739 355.12498487 292.2069753 355.12576098 281.71240234 355.13037109 C269.51227393 355.13572796 257.31215339 355.13771177 245.11202383 355.13475883 C238.65866931 355.13320077 232.20532241 355.13298941 225.75196838 355.13629532 C219.68465479 355.13918642 213.61736207 355.13717549 207.55005074 355.13140106 C205.32485043 355.13008013 203.09964837 355.13045627 200.87444878 355.13266373 C197.83420362 355.13540139 194.7940251 355.13196208 191.75378418 355.12698364 C190.87595292 355.12921436 189.99812165 355.13144509 189.09368944 355.13374341 C183.97464686 355.1175159 179.06740563 354.73545715 174 354 C174.25394531 355.00417969 174.50789062 356.00835937 174.76953125 357.04296875 C175.11725414 358.42446239 175.46490649 359.8059738 175.8125 361.1875 C175.97814453 361.84169922 176.14378906 362.49589844 176.31445312 363.16992188 C177.45262228 367.7011236 178.52538725 372.24506625 179.57299805 376.7980957 C179.84089645 377.96162064 180.10879486 379.12514557 180.3848114 380.32392883 C180.58782364 381.20703232 180.79083588 382.0901358 181 383 C182.22914438 382.99631283 183.45828876 382.99262566 184.72467995 382.98882675 C213.94676393 382.90206784 243.16883102 382.83617428 272.39101253 382.79573868 C275.99309712 382.79073626 279.59518144 382.78555893 283.19726562 382.78027344 C283.91433144 382.7792242 284.63139725 382.77817495 285.37019233 382.77709392 C296.95849203 382.75972097 308.5467118 382.72820057 320.13496418 382.69138882 C332.03857743 382.65389256 343.94214901 382.63174586 355.84581888 382.62364602 C362.52646711 382.61866519 369.20697034 382.6062519 375.8875618 382.57707977 C382.18302305 382.54981362 388.47822989 382.5415777 394.77374458 382.54756927 C397.07706017 382.54647405 399.38038477 382.53858745 401.68364906 382.5231781 C420.04275719 382.40643604 435.27699113 383.6401317 449.6875 396.375 C450.450625 397.24125 451.21375 398.1075 452 399 C452.62519531 399.64582031 453.25039063 400.29164063 453.89453125 400.95703125 C463.80789559 411.45894413 468.60638693 423.89411374 468.4375 438.3125 C468.42614014 439.68498901 468.42614014 439.68498901 468.41455078 441.08520508 C468.05639502 455.89638354 462.3563669 468.03552895 452.32421875 478.83203125 C438.83937473 491.41033113 423.92506216 494.72713453 406.15429688 494.13183594 C401.46614933 493.84493661 397.34374342 492.73220818 393 491 C392.03964844 490.62101562 391.07929688 490.24203125 390.08984375 489.8515625 C375.29098446 483.2445879 366.22741092 472.18472508 360.1875 457.375 C358.38850154 452.45081831 357.26135822 448.22716432 357 443 C356.94972656 442.34257812 356.89945312 441.68515625 356.84765625 441.0078125 C356.28118159 428.63600598 360.50175702 418.99648596 366 408 C298.185 407.505 298.185 407.505 229 407 C231.31 411.62 233.62 416.24 236 421 C240.35327497 434.05982492 239.14045606 449.95582199 233.453125 462.37890625 C225.5275205 477.79175218 214.28891685 486.90824045 197.90625 492.74609375 C184.43289326 496.50308746 168.71296799 494.57844759 156.375 488.375 C141.64887142 479.7812218 132.1257205 467.05343808 127.6875 450.6875 C125.00937017 436.25680045 127.05565136 420.70192471 135.2421875 408.33984375 C140.95256614 400.73869529 146.82992117 394.88136912 155 390 C151.81774412 375.44387619 147.78292559 361.12440943 143.77996826 346.7779541 C141.47051104 338.49938997 139.1762261 330.21661425 136.8828125 321.93359375 C136.62692982 321.00966953 136.37104713 320.08574532 136.10741043 319.13382339 C126.5833462 284.73064932 117.23882655 250.27785984 107.85716629 215.83565044 C107.09277942 213.02944152 106.32833173 210.22324917 105.5638237 207.41707325 C105.37691255 206.7310026 105.1900014 206.04493195 104.99742627 205.33807129 C104.62290844 203.96338568 104.24838641 202.58870123 103.87386012 201.21401793 C102.77255085 197.17152314 101.67174596 193.1288914 100.57127929 189.08616716 C97.28290371 177.00690688 93.98931468 164.92928788 90.64550781 152.86523438 C82.62835695 123.93235782 82.62835695 123.93235782 79.96458435 112.25502014 C76.37649206 96.71522684 72.03937731 81.34244938 67.921875 65.93664551 C66.46745533 60.49200032 65.01725861 55.04622888 63.56632233 49.6006546 C61.38071429 41.39958735 59.1898761 33.19993394 57 25 C38.19 24.67 19.38 24.34 0 24 C0 16.08 0 8.16 0 0 Z M112 133 C114.9686483 145.80999643 114.9686483 145.80999643 118.27978516 158.50170898 C118.476145 159.20903105 118.67250484 159.91635311 118.87481499 160.64510918 C119.50979367 162.92964836 120.14941953 165.21285663 120.7890625 167.49609375 C121.25045798 169.15332347 121.71150773 170.81064947 122.17224121 172.46806335 C123.14805419 175.97638177 124.12574334 179.48416896 125.1050415 182.99151611 C127.42982311 191.31843132 129.74481217 199.64807001 132.05935287 207.97783661 C132.583039 209.86251581 133.1068354 211.74716437 133.63074112 213.63178253 C137.23345806 226.59359071 140.80834568 239.56263672 144.34375 252.54296875 C144.55055767 253.30221334 144.75736534 254.06145794 144.97043991 254.84370995 C146.91435073 261.98264574 148.85369038 269.12281496 150.78898335 276.26409149 C155.21821969 292.64071504 155.21821969 292.64071504 159.80859375 308.97265625 C160.16751709 310.22828369 160.52644043 311.48391113 160.89624023 312.77758789 C163.36906842 319.99697723 167.10015447 325.47967065 174 329 C179.67218881 330.98824049 184.72109919 331.28615867 190.70272827 331.26069641 C192.1416268 331.26643473 192.1416268 331.26643473 193.60959399 331.27228898 C196.81449257 331.28258349 200.01921082 331.27863354 203.22412109 331.2746582 C205.52579412 331.27900664 207.8274657 331.28419023 210.12913513 331.29014587 C216.37500981 331.30353302 222.62082396 331.30411484 228.86671019 331.30158257 C234.08292205 331.30051266 239.29912167 331.30539678 244.51533091 331.310188 C257.5259161 331.32191643 270.53646683 331.32105866 283.54705425 331.31463119 C294.83435206 331.3094631 306.12156354 331.32071586 317.40884428 331.33972941 C329.01095608 331.35912279 340.61302337 331.36706996 352.21515143 331.36360615 C358.72391309 331.36179366 365.23259569 331.36442623 371.74134445 331.37832069 C377.86286986 331.39089962 383.98422255 331.38895412 390.10574532 331.37590981 C392.34987636 331.37354463 394.59401957 331.37627659 396.83813667 331.38453293 C399.90672573 331.39500679 402.97473593 331.3868942 406.04330444 331.3742218 C406.92668688 331.38159609 407.81006932 331.38897037 408.72022092 331.39656812 C416.27256366 331.33116767 423.92930212 329.92537642 429.67263317 324.62445164 C434.70776059 318.46238641 437.0035716 310.4973848 438.9440918 302.92211914 C439.19908793 301.96392053 439.45408407 301.00572191 439.71680737 300.01848698 C440.55463177 296.86000979 441.37690292 293.69770315 442.19921875 290.53515625 C442.79287753 288.28561526 443.38755551 286.03634303 443.98318481 283.787323 C445.56971432 277.78654995 447.14320732 271.78243144 448.71417618 265.77756882 C450.33715547 259.58283731 451.97185531 253.3912035 453.60620117 247.19946289 C455.56325755 239.78342145 457.51979368 232.36724942 459.47132874 224.94975281 C463.24042728 210.62861011 467.04553342 196.31804335 470.9140625 182.0234375 C471.1316025 181.21890326 471.34914249 180.41436901 471.57327461 179.58545494 C473.55026812 172.27428675 475.53207311 164.96445578 477.52385712 157.65730286 C478.38019491 154.51079488 479.23053284 151.3626642 480.08203125 148.21484375 C480.38368195 147.11598846 480.68533264 146.01713318 480.99612427 144.88497925 C481.2639975 143.89160553 481.53187073 142.89823181 481.80786133 141.87475586 C482.15630852 140.59585732 482.15630852 140.59585732 482.51179504 139.29112244 C483.13893775 136.73839844 483.13893775 136.73839844 483 133 C360.57 133 238.14 133 112 133 Z M161.0234375 415.7890625 C155.28258723 421.92077917 151.49848497 429.07791491 150.90625 437.546875 C151.28775672 447.52963421 154.79190013 454.74400956 161.69921875 461.71484375 C167.69553326 467.22606316 174.08134141 469.61422286 182.1875 470.25 C192.11305804 469.59914373 199.37622112 465.94449057 206.1875 458.75 C209.64340335 454.71371593 211.80629292 451.17607442 213 446 C213.24556641 444.97132813 213.24556641 444.97132813 213.49609375 443.921875 C214.77034075 436.61794377 213.29655244 429.14212025 209.70703125 422.66796875 C203.48049785 413.9374675 196.53126305 409.36945838 186.125 407.1875 C176.81609875 406.33129969 167.91080707 409.55504025 161.0234375 415.7890625 Z M389 418 C382.65809499 426.43338432 381.03764296 434.53745162 382 445 C383.9331888 453.61370198 389.11992717 460.88774655 396.56640625 465.63671875 C404.85612851 469.94836267 412.80890859 471.24799752 421.9375 468.9375 C431.19949025 465.87862457 437.50078579 459.51037806 442 451 C445.18911263 443.17217808 445.14098967 434.07754966 442.09375 426.19140625 C437.83912179 417.66695473 431.23505576 411.44164408 422.11328125 408.36328125 C409.59673719 406.21163874 397.69013182 408.33444522 389 418 Z " fill="#000000" transform="translate(0,9)"/>
</svg>
